<svg xmlns="http://www.w3.org/2000/svg" width="20" height="18" viewBox="0 0 20 18">
    <g fill="#979797" fill-rule="nonzero">
        <path d="M8.68 17.807c-4.786 0-8.68-3.894-8.68-8.68C0 4.34 3.894.445 8.68.445c4.788 0 8.682 3.894 8.682 8.68a.496.496 0 1 1-.993 0c0-4.24-3.45-7.689-7.689-7.689-4.24 0-7.689 3.45-7.689 7.69 0 4.239 3.45 7.688 7.69 7.688a7.727 7.727 0 0 0 6.63-3.794.496.496 0 0 1 .855.504 8.722 8.722 0 0 1-7.485 4.282z"/>
        <path d="M16.865 9.623a.496.496 0 0 1-.251-.069l-3.109-1.836a.496.496 0 1 1 .505-.853l2.712 1.601 1.746-2.5a.496.496 0 0 1 .813.567L17.272 9.41a.495.495 0 0 1-.407.213z"/>
    </g>
</svg>
