<svg xmlns="http://www.w3.org/2000/svg" width="13" height="12" viewBox="0 0 13 12">
    <g fill="#84C225" fill-rule="evenodd">
        <path d="M5.142 8.441L3.567 6.883a.433.433 0 0 1 0-.617l.125-.123a.445.445 0 0 1 .624 0l.982.971a.222.222 0 0 0 .312 0l3.188-3.153a.445.445 0 0 1 .624 0l.125.124a.433.433 0 0 1 0 .617l-3.78 3.74a.445.445 0 0 1-.625 0"/>
        <path d="M6.645 10.941c-2.75 0-4.98-2.205-4.98-4.925 0-2.72 2.23-4.925 4.98-4.925 2.75 0 4.98 2.205 4.98 4.925 0 2.72-2.23 4.925-4.98 4.925m0-10.897C3.315.044.607 2.723.607 6.016c0 3.293 2.709 5.972 6.038 5.972 3.33 0 6.04-2.679 6.04-5.972 0-3.293-2.71-5.972-6.04-5.972"/>
    </g>
</svg>
